<svg xmlns="http://www.w3.org/2000/svg" viewBox="0 0 100.35 105.94"><defs><style>.cls-1{fill:#fff;fill-rule:evenodd;}</style></defs><title>app store</title><g id="Capa_2" data-name="Capa 2"><g id="Info_Recursos" data-name="Info|Recursos"><path class="cls-1" d="M2.69,102.1A10.59,10.59,0,0,1,0,95.8c0-.39,0-.79,0-1.18Q0,53,0,11.35A10.92,10.92,0,0,1,2.65,3.86L51.75,53Q27.39,77.39,2.69,102.1Z"/><path class="cls-1" d="M7.46,105.31,55.76,57,73,74.2,51.63,85.65,16.52,104.46A10.81,10.81,0,0,1,7.46,105.31Z"/><path class="cls-1" d="M7.48.57a11.23,11.23,0,0,1,9,.87Q35.88,11.85,55.27,22.21l16.67,8.93c.38.2.74.42,1,.56L55.75,48.89Z"/><path class="cls-1" d="M59.63,53C65.86,46.82,72,40.71,78.13,34.54c0,0,.05,0,.11,0,5.59,3,11.27,5.84,16.76,9a10.9,10.9,0,0,1,.09,18.71c-5.36,3.15-10.94,5.94-16.44,8.86a1.08,1.08,0,0,1-1-.11Q68.63,62.06,59.63,53Z"/></g></g></svg>