<svg xmlns="http://www.w3.org/2000/svg" viewBox="0 0 69.86 85.94"><defs><style>.cls-1{fill:#fff;}</style></defs><title>apple</title><g id="Capa_2" data-name="Capa 2"><g id="Info_Recursos" data-name="Info|Recursos"><path class="cls-1" d="M21.12,21.05c3.49-.1,6.39,1.09,9.3,2.18a39.79,39.79,0,0,0,3.94,1.35,5,5,0,0,0,3.09-.22c1.73-.63,3.46-1.26,5.19-1.91A22.87,22.87,0,0,1,52,20.76a20.31,20.31,0,0,1,15.08,7.48c.68.82.63.91-.22,1.5C60.57,34.19,57.81,40.31,58.67,48c.75,6.8,4.34,11.68,10.41,14.76.78.39.94.75.65,1.55a51.46,51.46,0,0,1-8.64,15.15,30.51,30.51,0,0,1-3.6,3.84,10.53,10.53,0,0,1-10.12,2.11c-1.93-.51-3.72-1.38-5.61-2a17.17,17.17,0,0,0-10.86.19c-1.89.61-3.68,1.45-5.61,2A9.58,9.58,0,0,1,15.58,83,47.44,47.44,0,0,1,4.71,67.41,52.8,52.8,0,0,1,.65,54c-.94-5.78-1-11.52.77-17.16A22.72,22.72,0,0,1,9.15,25.26,18.86,18.86,0,0,1,21.12,21.05Z"/><path class="cls-1" d="M34.82,18A17.78,17.78,0,0,1,41.35,4.74a20.59,20.59,0,0,1,10-4.7c.58-.11.82,0,.83.63A19.61,19.61,0,0,1,45,16.52a13.8,13.8,0,0,1-9.11,3.39c-.86,0-1.21-.22-1.1-1.09A3.89,3.89,0,0,0,34.82,18Z"/></g></g></svg>