<svg xmlns="http://www.w3.org/2000/svg" viewBox="0 0 72.61 72.61"><defs><style>.cls-1{fill:#fff;}</style></defs><title>instagram</title><g id="Capa_2" data-name="Capa 2"><g id="Info_Recursos" data-name="Info|Recursos"><path class="cls-1" d="M45.88,15.87H26.73a12,12,0,0,0-12,12V44.74a12,12,0,0,0,12,12H45.88a12,12,0,0,0,12-12V27.86A12,12,0,0,0,45.88,15.87ZM36.3,50A13.73,13.73,0,1,1,50,36.3,13.74,13.74,0,0,1,36.3,50ZM49.82,25.85A2.85,2.85,0,1,1,52.66,23,2.85,2.85,0,0,1,49.82,25.85Z"/><path class="cls-1" d="M36.3,0A36.31,36.31,0,1,0,72.61,36.3,36.3,36.3,0,0,0,36.3,0Zm25,44.74A15.44,15.44,0,0,1,45.88,60.16H26.73A15.44,15.44,0,0,1,11.31,44.74V27.86A15.43,15.43,0,0,1,26.73,12.45H45.88A15.43,15.43,0,0,1,61.3,27.86Z"/><path class="cls-1" d="M36.3,26A10.3,10.3,0,1,0,46.6,36.3,10.29,10.29,0,0,0,36.3,26Z"/></g></g></svg>