<svg xmlns="http://www.w3.org/2000/svg" viewBox="0 0 72.61 72.61"><defs><style>.cls-1{fill:#fff;}</style></defs><title>tiktok</title><g id="Capa_2" data-name="Capa 2"><g id="Info_Recursos" data-name="Info|Recursos"><path class="cls-1" d="M36.3,0A36.31,36.31,0,1,0,72.61,36.3,36.3,36.3,0,0,0,36.3,0ZM59.22,34a2.29,2.29,0,0,1-2.3,2.29,22.78,22.78,0,0,1-11.45-3.06V45.47a16,16,0,1,1-16-16,2.3,2.3,0,0,1,2.29,2.29v6.87a2.3,2.3,0,0,1-2.29,2.3A4.58,4.58,0,1,0,34,45.47V13.39A2.29,2.29,0,0,1,36.3,11.1h6.88a2.29,2.29,0,0,1,2.29,2.29A11.46,11.46,0,0,0,56.92,24.85a2.29,2.29,0,0,1,2.3,2.29Z"/></g></g></svg>