<svg xmlns="http://www.w3.org/2000/svg" viewBox="0 0 72.61 72.61"><defs><style>.cls-1{fill:#fff;}</style></defs><title>youtube</title><g id="Capa_2" data-name="Capa 2"><g id="Info_Recursos" data-name="Info|Recursos"><path class="cls-1" d="M36.3,0A36.31,36.31,0,1,0,72.61,36.3,36.3,36.3,0,0,0,36.3,0ZM53.2,54a168.53,168.53,0,0,1-16.9.83A168.68,168.68,0,0,1,19.4,54a10.64,10.64,0,0,1-9.49-9.9q-.24-3.81-.24-7.79t.24-7.79a10.65,10.65,0,0,1,9.49-9.9c5.34-.53,11-.83,16.9-.83a168.45,168.45,0,0,1,16.9.84,10.62,10.62,0,0,1,9.49,9.89q.26,3.82.25,7.79t-.25,7.79A10.63,10.63,0,0,1,53.2,54Z"/><polygon class="cls-1" points="31.36 44.28 44.44 36.3 31.36 28.32 31.36 44.28"/></g></g></svg>