<svg xmlns="http://www.w3.org/2000/svg" viewBox="0 0 136.18 136.89"><defs><style>.cls-1{fill:#fff;}</style></defs><title>icono3</title><g id="Capa_2" data-name="Capa 2"><g id="Info_Recursos" data-name="Info|Recursos"><path class="cls-1" d="M116.47,136.89a62.24,62.24,0,0,1-19-3.42c-12.78-4.16-26.22-11.81-33.45-19l-2.87-2.87-1.05,1A22.1,22.1,0,0,1,28.82,81.34l1-1L27,77.42c-7.34-7.34-16.2-22-21.55-35.75-5.1-13.06-9.21-30.6.17-40a5.79,5.79,0,0,1,8.2,0L61.13,49,68.18,42,60.4,28.22a5.81,5.81,0,0,1,1-7l14-14a5.81,5.81,0,0,1,9.15,1.25L102,39.39,133,56.88A5.81,5.81,0,0,1,134.2,66l-14,14a5.81,5.81,0,0,1-7,1L99.45,73.24l-7,7.05,42.08,42.08a5.81,5.81,0,0,1,0,8.2C130.28,134.77,124.12,136.89,116.47,136.89ZM61.13,97.56a5.79,5.79,0,0,1,4.1,1.7l7,7c10.36,10.36,35.64,21.18,48.52,18.78L80.1,84.39a5.79,5.79,0,0,1,0-8.2L94.37,61.92a5.8,5.8,0,0,1,6.95-1l13.76,7.78,5.53-5.53L94.92,48.69a5.76,5.76,0,0,1-2.19-2.19L78.2,20.81l-5.53,5.54L80.45,40.1a5.8,5.8,0,0,1-1,6.95L65.23,61.32a5.79,5.79,0,0,1-8.2,0l-45.4-45.4c-.38,5.2,1.19,12.77,4.61,21.53,5.39,13.81,13.61,26.43,19,31.77l7,7a5.79,5.79,0,0,1,0,8.2L37,89.53A10.51,10.51,0,1,0,51.88,104.4L57,99.26A5.79,5.79,0,0,1,61.13,97.56Z"/></g></g></svg>