<svg xmlns="http://www.w3.org/2000/svg" viewBox="0 0 142.16 131.14"><defs><style>.cls-1{fill:#fff;}</style></defs><title>icono7</title><g id="Capa_2" data-name="Capa 2"><g id="Info_Recursos" data-name="Info|Recursos"><path class="cls-1" d="M49.8,82.27a6.36,6.36,0,0,1-4.5-1.86L13.79,48.9a28.65,28.65,0,0,1,36-44.19A28.65,28.65,0,0,1,94.2,28.64,28.45,28.45,0,0,1,85.81,48.9L54.3,80.41A6.36,6.36,0,0,1,49.8,82.27ZM34,12.73A15.92,15.92,0,0,0,22.79,39.9l27,27,27-27A15.92,15.92,0,0,0,54.3,17.39a6.36,6.36,0,0,1-9,0A15.84,15.84,0,0,0,34,12.73Z"/><path class="cls-1" d="M138.72,62.13a11.73,11.73,0,0,1,0,16.59L93.18,124.26a23.39,23.39,0,0,1-16.82,6.87H11.73A11.74,11.74,0,0,1,0,119.4H0a11.73,11.73,0,0,1,11.73-11.73H65a28.06,28.06,0,0,0,19.86-8.23l37.33-37.31a11.72,11.72,0,0,1,16.58,0Z"/></g></g></svg>