<svg xmlns="http://www.w3.org/2000/svg" viewBox="0 0 142.42 137.2"><defs><style>.cls-1{fill:#fff;}</style></defs><title>icono5</title><g id="Capa_2" data-name="Capa 2"><g id="Info_Recursos" data-name="Info|Recursos"><path class="cls-1" d="M139,68.06a11.75,11.75,0,0,1,0,16.62L93.35,130.31a23.43,23.43,0,0,1-16.84,6.88H11.76A11.76,11.76,0,0,1,0,125.44H0a11.75,11.75,0,0,1,11.76-11.75H65.07A28.13,28.13,0,0,0,85,105.44l37.39-37.38a11.75,11.75,0,0,1,16.62,0Z"/><path class="cls-1" d="M66.72,44.74a26,26,0,1,0-36,0c-6.62,4.31-10.87,10.92-10.87,18.33V87.68a6.38,6.38,0,1,0,12.75,0V63.07c0-5.81,7.39-10.72,16.13-10.72s16.13,4.91,16.13,10.72V87.68a6.38,6.38,0,1,0,12.76,0V63.07C77.59,55.66,73.34,49.05,66.72,44.74Zm-18-32A13.26,13.26,0,1,1,35.45,26,13.28,13.28,0,0,1,48.7,12.75Z"/></g></g></svg>