<svg xmlns="http://www.w3.org/2000/svg" viewBox="0 0 125.74 128.3"><defs><style>.cls-1{fill:#fff;}</style></defs><title>icono4</title><g id="Capa_2" data-name="Capa 2"><g id="Info_Recursos" data-name="Info|Recursos"><path class="cls-1" d="M62.15,128.3a7.56,7.56,0,0,1-4-1.17L3.52,92.61A7.59,7.59,0,0,1,0,86.21V7.57a7.58,7.58,0,0,1,11.62-6.4L66.2,35.7a7.58,7.58,0,0,1,3.52,6.4v78.63a7.55,7.55,0,0,1-7.57,7.57ZM15.15,82l39.42,25V46.27L15.15,21.33Z"/><path class="cls-1" d="M63.6,128.3A7.55,7.55,0,0,1,56,120.73V42.1a7.56,7.56,0,0,1,3.53-6.4L114.12,1.17a7.58,7.58,0,0,1,11.62,6.4V86.21a7.59,7.59,0,0,1-3.52,6.4L67.65,127.13A7.59,7.59,0,0,1,63.6,128.3Zm7.57-82V107L110.6,82V21.33Z"/></g></g></svg>