<svg xmlns="http://www.w3.org/2000/svg" viewBox="0 0 129.22 129.22"><defs><style>.cls-1{fill:#fff;}.cls-2{fill:none;stroke:#fff;stroke-miterlimit:10;stroke-width:1.96px;}</style></defs><title>icono2</title><g id="Capa_2" data-name="Capa 2"><g id="Info_Recursos" data-name="Info|Recursos"><g id="circle2046"><path class="cls-1" d="M64.61,129.22a64.61,64.61,0,1,1,64.61-64.61A64.68,64.68,0,0,1,64.61,129.22Zm0-115a50.44,50.44,0,1,0,50.44,50.44A50.5,50.5,0,0,0,64.61,14.17Z"/></g><g id="path2044"><path class="cls-2" d="M86.93,88,70.15,68.54c-.19-.31-2.27-3.66-2.27-6.21s2.2-7.56,2.24-7.65l.12-.1,14.13-13.5a3.76,3.76,0,0,0,.14-5.3l-.29-.31a3.76,3.76,0,0,0-5.3-.14L76.44,37.7l-5.19,4.95c-1,1-2,1.92-3,2.88L66.76,47c-.34.33-.64.83-1.1,1a1.65,1.65,0,0,1-.7,0c-1.06-.1-2.09,0-3.15,0H59.55L49.17,33.61a3.75,3.75,0,0,0-5.23-.89L43.6,33a3.75,3.75,0,0,0-.89,5.23L53.55,53.13V70.9L45,94.75a3.75,3.75,0,0,0,2.26,4.8l.4.14a3.75,3.75,0,0,0,4.79-2.27l8.31-23.21h3.81L80.93,93.13a3.74,3.74,0,0,0,5.29.39l2.1-1.81A2.13,2.13,0,0,0,86.93,88Z"/></g><circle class="cls-2" cx="63.81" cy="35.95" r="6.6"/></g></g></svg>