<svg xmlns="http://www.w3.org/2000/svg" viewBox="0 0 147.42 141.4"><defs><style>.cls-1{fill:#fff;}.cls-2{fill:none;stroke:#fff;stroke-miterlimit:10;stroke-width:1.96px;}</style></defs><title>icono1</title><g id="Capa_2" data-name="Capa 2"><g id="Info_Recursos" data-name="Info|Recursos"><path class="cls-1" d="M144,72.27a11.74,11.74,0,0,1,0,16.62L98.35,134.52a23.41,23.41,0,0,1-16.85,6.87H16.75A11.76,11.76,0,0,1,5,129.65H5a11.77,11.77,0,0,1,11.76-11.76H70.07A28.14,28.14,0,0,0,90,109.65l37.39-37.38a11.74,11.74,0,0,1,16.61,0Z"/><circle class="cls-2" cx="66.37" cy="10.67" r="9.69"/><path class="cls-2" d="M89.86,24A4.8,4.8,0,0,0,83.32,26l-4.24,8L60.43,22.29a4.49,4.49,0,0,0-2.54-.73H37.31a4.74,4.74,0,0,0-4.24,2.55L25.2,38.64a4.79,4.79,0,0,0,1.93,6.54,5.51,5.51,0,0,0,2.3.6,4.89,4.89,0,0,0,4.24-2.54l6.54-12h7.15l-21.44,40H5.82a4.85,4.85,0,0,0,0,9.69h23a4.75,4.75,0,0,0,4.24-2.55l8.47-15.62,13.93,13L54.38,100a4.7,4.7,0,0,0,4.48,5.09h.24a4.9,4.9,0,0,0,4.84-4.61l1.22-26.64a4.49,4.49,0,0,0-1.58-3.75L51.84,59.22l12.35-23,14,8.84a4.86,4.86,0,0,0,3.88.6,4.71,4.71,0,0,0,3-2.42L91.8,30.52A4.72,4.72,0,0,0,89.86,24Z"/></g></g></svg>