<svg xmlns="http://www.w3.org/2000/svg" viewBox="0 0 141.91 141.91"><defs><style>.cls-1{fill:#fff;}</style></defs><title>icono6</title><g id="Capa_2" data-name="Capa 2"><g id="Info_Recursos" data-name="Info|Recursos"><path class="cls-1" d="M71,98.34a4.36,4.36,0,0,1-3.08-1.27L46.29,75.49A19.62,19.62,0,0,1,71,45.23,19.62,19.62,0,0,1,95.61,75.49L74,97.07A4.39,4.39,0,0,1,71,98.34ZM60.16,50.72a10.9,10.9,0,0,0-7.71,18.6L71,87.82l18.49-18.5A10.9,10.9,0,0,0,74,53.91a4.36,4.36,0,0,1-6.16,0A10.83,10.83,0,0,0,60.16,50.72Z"/><path class="cls-1" d="M71,141.91a71,71,0,1,1,71-71A71,71,0,0,1,71,141.91ZM71,12.12A58.84,58.84,0,1,0,129.79,71,58.9,58.9,0,0,0,71,12.12Z"/></g></g></svg>